<?xml version="1.0" standalone="no"?><!DOCTYPE svg PUBLIC "-//W3C//DTD SVG 1.1//EN" "http://www.w3.org/Graphics/SVG/1.1/DTD/svg11.dtd"><svg t="1666599352466" class="icon" viewBox="0 0 1024 1024" version="1.1" xmlns="http://www.w3.org/2000/svg" p-id="2184" xmlns:xlink="http://www.w3.org/1999/xlink" width="16" height="16"><path d="M270.6 798.8c-6.4-17.9-26.6-78.2-28.7-158-2.1-82.1-3.7-140.3 33.3-200 50-80.6 134.2-105.9 156.7-112.7 78.6-23.6 146.2-8.1 179.3 2.7 27.8 9 98.5 31.9 142.7 100 22 33.9 27.1 63.1 36 114.7 6.4 37 23.4 143.5-26 254-3.9 8.8-7.4 15.7-9.7 20-6.4-3.1-15.4-7.3-26.4-11.9-49.6-20.7-92.3-29.8-117.2-34.1-52.2-9-92.6-8.1-116.7-7.3-25.3 0.8-61.4 2-107.3 12.7-34.6 8-61.6 18.4-76.3 24.5-13.2 5.5-24.2 10.7-32.4 14.8-1.8-4.7-4.4-11.3-7.3-19.4z" fill="#F7BA35" p-id="2185"></path><path d="M474.4 362h90.8v16.3h-90.8zM474.4 396.3h90.8v16.3h-90.8zM474.4 428h90.8v16.3h-90.8z" fill="#504B5A" p-id="2186"></path><path d="M511.3 370.1h16.4v63.1h-16.4z" fill="#504B5A" p-id="2187"></path><path d="M375.3 539.3m-77 0a77 77 0 1 0 154 0 77 77 0 1 0-154 0Z" fill="#EDEDEE" p-id="2188"></path><path d="M656.4 540.3m-77 0a77 77 0 1 0 154 0 77 77 0 1 0-154 0Z" fill="#EDEDEE" p-id="2189"></path><path d="M374.8 539.3m-57.7 0a57.7 57.7 0 1 0 115.4 0 57.7 57.7 0 1 0-115.4 0Z" fill="#504B5A" p-id="2190"></path><path d="M656 539.3m-57.7 0a57.7 57.7 0 1 0 115.4 0 57.7 57.7 0 1 0-115.4 0Z" fill="#504B5A" p-id="2191"></path><path d="M374.8 522.6m-13 0a13 13 0 1 0 26 0 13 13 0 1 0-26 0Z" fill="#EDEDEE" p-id="2192"></path><path d="M653.1 519.3m-13 0a13 13 0 1 0 26 0 13 13 0 1 0-26 0Z" fill="#EDEDEE" p-id="2193"></path><path d="M519.1 493.1c-4.7 0.3-8.3 7.9-12.7 17-2.5 5.2-3.6 8.9-5.7 15.3-5.6 17.5-5.4 14.9-8.3 24.7-4.4 14.7-6.2 24.4-8.7 38.3-1.5 8.4-2.2 13.7-1 20.3 0.5 2.8 1.7 9.2 6.3 15.7 3.3 4.7 7.1 7.6 10.3 10 3.7 2.8 7.1 4.7 9.7 6 2.4 0.8 6.1 1.8 10.7 1.7 11-0.3 18.5-6.6 21.3-9 7.9-6.8 10.7-15 11.7-18 2-6 2.1-11.1 2-16.3-0.4-20.5-4.4-37.3-5.3-41.3-3.8-15.6-8.2-27.8-12.3-37.3-6.3-14.9-11.7-27.5-18-27.1z" fill="#3C6650" p-id="2194"></path><path d="M308.2 804c7.1-17.9 21.3-47.2 49.3-75 7.8-7.8 28-26.6 58.3-41.3 93.1-45.3 194.5-10.3 227 12.7 15.6 11 29.7 25 29.7 25 14.6 14.6 23.9 27.5 27.3 32.3 8 11.5 17.9 28.1 26 49.7-36.6-14.6-86.1-30-146-37-27.8-3.2-78.2-7.1-140.7 1-53.5 6.8-97.9 20.1-130.9 32.6z" fill="#EDEDEE" p-id="2195"></path><path d="M596.5 653.6c-6.3 0.2-12 1.4-23.3 3.8-9.2 1.9-16.5 3.7-18.5 4.3-15.9 4-15.9 4.8-22.5 5.8-9.5 1.3-17.1 0.7-22.3 0.3-8.5-0.7-15.1-2.3-19-3.3-2.5-0.6-2.7-0.7-15-4.3-9.4-2.7-14.2-4.1-16.3-4.5-8.1-1.7-14.5-2-19-2.3-8.3-0.4-12.4-0.6-15.8 0.5-10.4 3.4-15.1 13.1-15.8 14.5-3.1 6.6-2.7 12.5-2.5 15.5 0.1 1.6 1.4 16.3 13.3 25.3 3.3 2.5 7 4.3 16.8 6.5 17 3.9 30.8 4.3 36.8 4.5 34.5 0.9 43.2 1 43.2 1 16.8 0.2 35.2 0.3 57.5-1.8 5.4-0.5 13.1-1.3 22.3-5 7-2.8 15.4-6.2 21.8-14.8 2.6-3.5 9.1-13.6 7-26.3-0.5-3.2-2-11.8-9-16.8-5-3.4-10.3-3.2-19.7-2.9z" fill="#C8CED4" p-id="2196"></path><path d="M408.9 670.6c-1.9 7 0 8.1-1.3 16.8-2.2 15.3-9.8 23.6-7.8 25.3 2.1 1.7 11.1-6.4 13.8-8.8 7.3-6.5 12.2-12.7 20-23.8 15.3-21.7 14.9-24.1 14.3-25.5-2.8-6.2-17.1-8-26.5-2.8-8.8 5-11.5 14.9-12.5 18.8zM623.1 670.6c1.9 7 0 8.1 1.3 16.8 2.2 15.3 9.8 23.6 7.8 25.3-2.1 1.7-11.1-6.4-13.8-8.8-7.3-6.5-12.2-12.7-20-23.8-15.3-21.7-14.9-24.1-14.3-25.5 2.8-6.2 17.1-8 26.5-2.8 8.7 5 11.4 14.9 12.5 18.8z" fill="#FFFFFF" p-id="2197"></path><path d="M446 651.8l17 28.7 28-14.3 20.3 19.2 23-16.8 32.5 13.4 21.2-30.2-69.5 9.7zM398.3 698.5l51.5-3.3 15.7 26.3 23.5-19.6 24 21.9 24.5-20 30 17.2 18.8-22.5 46.1 3.7-31.9 21.6-52 5.5h-73.7l-52.3-9.5z" fill="#FFFFFF" p-id="2198"></path><path d="M595.5 653.7c-6.6-0.2-13.4 0.6-19.1 1.7-11.4 2.2-42.5 12.6-61.8 12.7-19.2 0.1-42-9.9-53.7-12.2-11.7-2.3-29.9-3.6-39.2 0.3-9.2 3.9-15.2 14.8-16.2 23-1 8.1 3.8 19.5 10.1 25.9 6.4 6.4 18.9 10.2 28 12.7s49.6 4.2 71.6 4.5c21.9 0.3 44.5-0.4 60.1-2.9 15.6-2.4 25.9-6.8 33.8-12.9 7.9-6.2 12.7-15.6 13.5-24 0.7-8.1 0.9-19.6-9.1-24.8-4.9-2.8-11.4-3.9-18-4z m16.3-18.9c7.8 0.2 15.4 1.9 21.3 5.8 11.8 7.9 11.6 25.5 10.7 37.9-0.9 12.8-6.6 27.3-15.9 36.7s-21.4 16.1-39.7 19.7c-18.3 3.8-44.9 4.8-70.7 4.4-25.8-0.4-73.5-3.1-84.3-6.9-10.7-3.8-25.5-9.5-33-19.3s-13.1-27.1-11.9-39.5c1.2-12.4 8.2-29.1 19.1-35.1 10.9-5.9 32.3-3.9 46.1-0.4 13.8 3.5 40.5 18.7 63.2 18.5 22.7-0.1 59.3-16 72.7-19.3 6.6-1.5 14.6-2.7 22.4-2.5z" fill="#C5191C" p-id="2199"></path><path d="M408.9 670.6c-1.9 7 0 8.1-1.3 16.8-2.2 15.3-9.8 23.6-7.8 25.3 2.1 1.7 11.1-6.4 13.8-8.8 7.3-6.5 12.2-12.7 20-23.8 15.3-21.6-23.7-13.4-24.7-9.5zM622.1 670c1.9 7 0 8.1 1.3 16.8 2.2 15.3 9.8 23.6 7.8 25.3-2.1 1.7-11.1-6.4-13.8-8.8-7.3-6.5-12.2-12.7-20-23.8C582 657.8 621 666 622.1 670z" fill="#FFFFFF" p-id="2200"></path><path d="M246.7 213.2c-7 4.2-30.1 18.9-44.3 48.9-11.3 23.7-11.2 44.7-11.1 49.5 0.1 4.8 0.8 22.4 9.8 42.6 9.5 21.2 22.9 33.6 30.2 40.1 4.6 4.2 20.5 17.9 45.5 27 16.5 6 40.7 14.7 69.5 6.3 8.1-2.4 28.5-9.6 44.9-29.5 16.6-20.2 19.6-42 21.5-56.4 2.9-21.1 0-38-1.8-46.4-1.4-6.2-4.9-20-13.5-35.7-4.6-8.3-14.3-25.5-33.8-40.1-7.3-5.5-24.6-18.1-50.5-21.3-33.4-4.2-58.5 10.2-66.4 15zM784.1 213c7 4.1 30.1 18.7 44.4 48.3 11.3 23.4 11.2 44.1 11.1 48.9-0.1 4.8-0.8 22.1-9.9 42.1-9.5 20.9-23 33.2-30.2 39.6-4.6 4.1-20.5 17.7-45.6 26.6-16.5 5.9-40.7 14.5-69.6 6.2-8.1-2.3-28.6-9.5-45-29.1-16.7-19.9-19.6-41.4-21.6-55.7-2.9-20.8 0-37.5 1.8-45.8 1.4-6.1 4.9-19.8 13.6-35.3 4.6-8.2 14.3-25.1 33.9-39.6 7.3-5.4 24.7-17.9 50.5-21 33.5-4.2 58.6 10.1 66.6 14.8z" fill="#F7BA35" p-id="2201"></path><path d="M264.1 242c-5.7 3.3-24.4 15.1-36 39-9.1 18.9-9.1 35.6-9 39.5 0.1 3.9 0.6 17.9 8 34 7.7 16.9 18.6 26.8 24.5 32 3.8 3.3 16.6 14.3 37 21.5 13.4 4.8 33.1 11.7 56.5 5 6.6-1.9 23.2-7.6 36.5-23.5 13.5-16.1 15.9-33.5 17.5-45 2.3-16.8 0-30.3-1.5-37-1.1-5-4-16-11-28.5-3.7-6.6-11.6-20.3-27.5-32-5.9-4.4-20-14.4-41-17-27.1-3.3-47.5 8.2-54 12zM765.3 242c5.7 3.3 24.4 15.1 36 39 9.1 18.9 9.1 35.6 9 39.5-0.1 3.9-0.6 17.9-8 34-7.7 16.9-18.6 26.8-24.5 32-3.8 3.3-16.6 14.3-37 21.5-13.4 4.8-33.1 11.7-56.5 5-6.6-1.9-23.2-7.6-36.5-23.5-13.5-16.1-15.9-33.5-17.5-45-2.3-16.8 0-30.3 1.5-37 1.1-5 4-16 11-28.5 3.7-6.6 11.6-20.3 27.5-32 5.9-4.4 20-14.4 41-17 27.1-3.3 47.5 8.2 54 12z" fill="#BB3E13" p-id="2202"></path><path d="M322.9 349m-46 0a46 46 0 1 0 92 0 46 46 0 1 0-92 0Z" fill="#FBFCFB" p-id="2203"></path><path d="M706.3 349m-46 0a46 46 0 1 0 92 0 46 46 0 1 0-92 0Z" fill="#FBFCFB" p-id="2204"></path></svg>